<svg width="24" height="24" viewBox="0 0 24 24" fill="none" xmlns="http://www.w3.org/2000/svg">
<circle opacity="0.05" cx="12" cy="12" r="12" fill="#247DD0"/>
<path d="M9.90198 17.5129H6.9726C6.84312 17.5129 6.71893 17.4614 6.62737 17.3699C6.53581 17.2783 6.48438 17.1541 6.48438 17.0246V14.2975C6.48437 14.2334 6.497 14.1699 6.52154 14.1107C6.54607 14.0514 6.58204 13.9976 6.62737 13.9523L13.9508 6.62884C14.0424 6.53728 14.1665 6.48584 14.296 6.48584C14.4255 6.48584 14.5497 6.53728 14.6413 6.62884L17.3684 9.35598C17.46 9.44754 17.5114 9.57172 17.5114 9.70121C17.5114 9.8307 17.46 9.95488 17.3684 10.0464L9.90198 17.5129Z" stroke="#247DD0" stroke-width="0.8" stroke-linecap="round" stroke-linejoin="round"/>
<path d="M12.3438 8.23633L15.7614 11.6539" stroke="#247DD0" stroke-width="0.8" stroke-linecap="round" stroke-linejoin="round"/>
</svg>
